<svg width="100mm" height="100mm" viewBox="0 0 250 250" xml:space="preserve" xmlns:xlink="http://www.w3.org/1999/xlink" xmlns="http://www.w3.org/2000/svg">
  <circle cx="125" cy="125" r="125" fill="#FFFFFF"/>
  <defs>
    <linearGradient id="d">
      <stop style="stop-color:#ef7351;stop-opacity:1" offset="0"/>
      <stop style="stop-color:#f0996d;stop-opacity:1" offset="1"/>
    </linearGradient>
    <linearGradient id="c">
      <stop style="stop-color:#092742;stop-opacity:1" offset="0"/>
      <stop style="stop-color:#0c2641;stop-opacity:1" offset="1"/>
    </linearGradient>
    <linearGradient id="b">
      <stop style="stop-color:#0c2740;stop-opacity:1" offset="0"/>
      <stop style="stop-color:#092741;stop-opacity:1" offset="1"/>
    </linearGradient>
    <linearGradient id="a">
      <stop style="stop-color:#0a2640;stop-opacity:1" offset="0"/>
      <stop style="stop-color:#0d2742;stop-opacity:1" offset="1"/>
    </linearGradient>
    <linearGradient xlink:href="#a" id="e" x1="65.045" y1="82.114" x2="89.505" y2="82.114" gradientUnits="userSpaceOnUse" gradientTransform="matrix(1.45945 0 0 1.42656 -49.089 -71.53)"/>
    <linearGradient xlink:href="#b" id="f" x1="73.985" y1="75.824" x2="93.732" y2="75.824" gradientUnits="userSpaceOnUse" gradientTransform="matrix(1.45945 0 0 1.42656 -49.089 -71.53)"/>
    <linearGradient xlink:href="#c" id="g" x1="88.304" y1="73.873" x2="98.815" y2="73.873" gradientUnits="userSpaceOnUse" gradientTransform="matrix(1.45945 0 0 1.42656 -49.089 -71.53)"/>
    <linearGradient xlink:href="#d" id="h" x1="128.45" y1="73.329" x2="136.244" y2="143.176" gradientUnits="userSpaceOnUse" gradientTransform="matrix(1.45945 0 0 1.42656 -49.089 -71.53)"/>
  </defs>
  <path style="opacity:1;fill:#1dd5bc;fill-opacity:1;fill-rule:evenodd;stroke:none;stroke-width:0;stroke-dasharray:none;stroke-opacity:1" d="M13.444 125.734c-7.683-10.217-26.83-49.845 19.761-74.608 24.91 40.358-3.89 57.468-12.845 78.954-1.847-13.858 1.066-30.745 5.929-46.117-12.272 10.8-14.26 25.62-12.845 41.77" transform="translate(30.609 -13.033)"/>
  <path style="opacity:1;fill:#21d2bc;fill-opacity:1;fill-rule:evenodd;stroke:none;stroke-width:0;stroke-dasharray:none;stroke-opacity:1" d="M-7.942 135.266c-1.079 12.065 4.43 21.37 9.587 30.822-20.04-12.047-31.427-27.698-23.563-51.37 37.662 8.648 32.436 32.944 32.572 53.74-7.798-11.585-8.938-19.23-18.596-33.192" transform="translate(30.609 -13.033)"/>
  <path style="opacity:1;fill:#0a2742;fill-opacity:1;fill-rule:evenodd;stroke:none;stroke-width:0;stroke-dasharray:none;stroke-opacity:1" d="M-7.249 170.717c-4.123 18.375 8.534 33.28 28.183 46.74-4.649-25.172-6-40.506-28.183-46.74" transform="translate(30.609 -13.033)"/>
  <path style="opacity:1;fill:#0c2740;fill-opacity:1;fill-rule:evenodd;stroke:none;stroke-width:0;stroke-dasharray:none;stroke-opacity:1" d="M23.59 179.862c12.747-27.81 39.935-35.102 39.156-40.08 4.572-5.645 7.998-12.783 9.818-22.015-51.145-6.739-50.808 44.793-48.973 62.095" transform="translate(30.609 -13.033)"/>
  <path style="opacity:1;fill:#0b2740;fill-opacity:1;fill-rule:evenodd;stroke:none;stroke-width:0;stroke-dasharray:none;stroke-opacity:1" d="M96.564 206.253c-34.142 2.431-34.649 34.594-22.935 47.984 23.233-10.255 24.098-32.45 22.935-47.984" transform="translate(30.609 -13.033)"/>
  <path style="opacity:1;fill:#1ed2b9;fill-opacity:1;fill-rule:evenodd;stroke:none;stroke-width:0;stroke-dasharray:none;stroke-opacity:1" d="M104.612 204.877c11.892-.221 24.428-3.463 38.427-13.57-22.464 49.986-39.14 59.657-54.924 63.127 20.12-23.161 16.865-27.122 16.497-49.557" transform="translate(30.609 -13.033)"/>
  <path style="opacity:1;fill:#1cceb6;fill-opacity:1;fill-rule:evenodd;stroke:none;stroke-width:0;stroke-dasharray:none;stroke-opacity:1" d="M156.921 180.295c32.279-17.458 46.02 1.416 47.682 1.376 2.628-5.1 3.875-9.861 4.829-14.552-14.48-4.922-32.267-3.019-50.499-.197-.114 4.458-1.074 8.915-2.012 13.373" transform="translate(30.609 -13.033)"/>
  <path style="opacity:1;fill:#1ad0b7;fill-opacity:1;fill-rule:evenodd;stroke:none;stroke-width:0;stroke-dasharray:none;stroke-opacity:1" d="M201.585 189.734c-18.76-18.42-44.146-7.187-54.924 15.93-11.855 16.69-15.86 34.705-38.629 49.557 53.85-4.768 79.811-36.803 93.553-65.487m-43.055-37.561.806 7.67c16.898-2.19 33.791-4.446 51.102-.59 2.087-9.702 1.35-19.404 1.006-29.105-8.631 15.92-27.82 21.783-52.913 22.025" transform="translate(30.609 -13.033)"/>
  <path style="display:inline;opacity:1;fill:#1acab5;fill-opacity:1;fill-rule:evenodd;stroke:none;stroke-width:0;stroke-dasharray:none;stroke-opacity:1" d="M155.714 144.504c49.12 3.601 64.776-26.481 43.86-57.424.842 38.289-19.286 49.246-44.866 53.097z" transform="translate(30.609 -13.033)"/>
  <path style="opacity:1;fill:#f18d64;fill-opacity:1;fill-rule:evenodd;stroke:none;stroke-width:0;stroke-dasharray:none;stroke-opacity:1" d="m60.307 57.273 11.285 2.345c-10.02 16.348-10.545 32.576-3.555 48.722l-14.295.521c-3.966-16.887-4.861-33.898 6.565-51.588" transform="translate(30.609 -13.033)"/>
  <path style="opacity:1;fill:url(#e);fill-rule:evenodd;stroke:none;stroke-width:0;stroke-dasharray:none;stroke-opacity:1" d="M80.643 53.44c1.174.17 1.328-2.444-.344-3.462l-18.925-4.69c.602-5.68-8.701-11.786-14.66-3.387-4.09 7.383 7.167 16.025 14.016 6.297 6.778 2.538 13.576 4.332 19.913 5.243" transform="translate(30.609 -13.033)"/>
  <path style="opacity:1;fill:url(#f);fill-rule:evenodd;stroke:none;stroke-width:0;stroke-dasharray:none;stroke-opacity:1" d="M85.896 50.499c.944.158 2.434-2.288 1.534-2.606-3.523-1.241-14.904-11.783-14.427-13.548 3.502-4.047.097-14.72-10.03-10.682-7.07 1.68-5.03 17.578 6.664 12.766-.071.668 9.522 12.938 16.26 14.07" transform="translate(30.609 -13.033)"/>
  <path style="opacity:1;fill:url(#g);fill-rule:evenodd;stroke:none;stroke-width:0;stroke-dasharray:none;stroke-opacity:1" d="M90.694 47.372c-3.428-1.864-4.386-8.651-5.597-13.027-8.39-2.94-6.137-13.837 1.866-14.07 12.157.547 8.75 13.535 2.554 13.657-.118 4.58 1.923 9 3.466 12.246 0 0-1.594 1.572-2.289 1.194" transform="translate(30.609 -13.033)"/>
  <path style="display:inline;opacity:1;fill:url(#h);fill-rule:evenodd;stroke:none;stroke-width:0;stroke-dasharray:none;stroke-opacity:1" d="M101.09 42.422c-1.7-2.519-2.304-5.037-2.932-7.556 21.995-5.227 67.09-3.97 87.696 39.082 20.347 42.203-21.193 63.824-35.452 57.32-11.1-16.192-25.28-24.106-38.383-34.913 7.099-.278 12.34-4.187 17.859-7.556 12.11-.05 22.947-1.843 29.587-9.38-28.517-13.559-17.558-17.905-33.852-30.223-8.95-7.184-16.621-6.249-24.523-6.774" transform="translate(30.609 -13.033)"/>
  <path style="display:inline;opacity:1;fill:#0b2742;fill-opacity:1;fill-rule:evenodd;stroke:none;stroke-width:0;stroke-dasharray:none;stroke-opacity:1" d="M146.905 80.36c-21.56-9.505-14.873-17.887-26.43-25.2-28.094-16.816-48.529 11.825-48.64 26.888l17.714-10.12c4.57-.07 6.933-.236 15.33-.918-.954 8.455 13.495 10.082 12.767-.692-.881-4.493-12.694-11.101-28.092 1.608L71.834 82.05c-3.568 21.33 25.228 54.842 24.705 65.71 4.325 39.317-40.005 28.587-46.168 59.3-3.98 16.926 6.272 30.837 8.796 32.308-3.397-32.02 24.722-40.422 37.114-41.872 55.264 1.838 69.921-48.86 28.992-80.064-10.444-9.49-26.018-14.98-27.455-32.047 4.745 5.667 21.01 4.789 29.337-5.064 12.392.77 13.264.04 19.75.04" transform="translate(30.609 -13.033)"/>
  <path style="display:inline;opacity:1;fill:#0b2742;fill-opacity:1;fill-rule:evenodd;stroke:none;stroke-width:0;stroke-dasharray:none;stroke-opacity:1" d="m71.887 159.88-24.483 3.753c-20.942 9.344-33.705 58.124 4.492 80.98-20.86-34.64-7.675-50.92 10.036-64.76z" transform="translate(30.609 -13.033)"/>
  <path style="display:inline;opacity:1;fill:#1bcdb7;fill-opacity:1;fill-rule:evenodd;stroke:none;stroke-width:0;stroke-dasharray:none;stroke-opacity:1" d="M47.398 163.635c10.438-9.574 22.875-17.02 44.664-14.52.388 13.431-8.864 23.919-30.053 30.76l9.964-19.984z" transform="translate(30.609 -13.033)"/>
</svg>
