<?xml version="1.0" encoding="UTF-8" standalone="no"?>
<!-- Created with Inkscape (http://www.inkscape.org/) -->

<svg
   width="100"
   height="100"
   viewBox="0 0 100 100"
   version="1.1"
   id="svg1"
   xml:space="preserve"
   inkscape:version="1.3.2 (091e20e, 2023-11-25)"
   sodipodi:docname="peacock.svg"
   xmlns:inkscape="http://www.inkscape.org/namespaces/inkscape"
   xmlns:sodipodi="http://sodipodi.sourceforge.net/DTD/sodipodi-0.dtd"
   xmlns:xlink="http://www.w3.org/1999/xlink"
   xmlns="http://www.w3.org/2000/svg"
   xmlns:svg="http://www.w3.org/2000/svg"><sodipodi:namedview
     id="namedview1"
     pagecolor="#ffffff"
     bordercolor="#000000"
     borderopacity="0.25"
     inkscape:showpageshadow="2"
     inkscape:pageopacity="0.0"
     inkscape:pagecheckerboard="0"
     inkscape:deskcolor="#d1d1d1"
     inkscape:document-units="mm"
     inkscape:zoom="0.55684034"
     inkscape:cx="533.36653"
     inkscape:cy="453.45134"
     inkscape:window-width="1376"
     inkscape:window-height="768"
     inkscape:window-x="0"
     inkscape:window-y="0"
     inkscape:window-maximized="0"
     inkscape:current-layer="layer1" /><defs
     id="defs1"><linearGradient
       id="linearGradient29"
       inkscape:collect="always"><stop
         style="stop-color:#ef7351;stop-opacity:1;"
         offset="0"
         id="stop29" /><stop
         style="stop-color:#f0996d;stop-opacity:1;"
         offset="1"
         id="stop30" /></linearGradient><linearGradient
       id="linearGradient27"
       inkscape:collect="always"><stop
         style="stop-color:#092742;stop-opacity:1;"
         offset="0"
         id="stop27" /><stop
         style="stop-color:#0c2641;stop-opacity:1;"
         offset="1"
         id="stop28" /></linearGradient><linearGradient
       id="linearGradient25"
       inkscape:collect="always"><stop
         style="stop-color:#0c2740;stop-opacity:1;"
         offset="0"
         id="stop25" /><stop
         style="stop-color:#092741;stop-opacity:1;"
         offset="1"
         id="stop26" /></linearGradient><linearGradient
       id="linearGradient23"
       inkscape:collect="always"><stop
         style="stop-color:#0a2640;stop-opacity:1;"
         offset="0"
         id="stop23" /><stop
         style="stop-color:#0d2742;stop-opacity:1;"
         offset="1"
         id="stop24" /></linearGradient><linearGradient
       inkscape:collect="always"
       xlink:href="#linearGradient23"
       id="linearGradient24"
       x1="65.045201"
       y1="82.114327"
       x2="89.504969"
       y2="82.114327"
       gradientUnits="userSpaceOnUse" /><linearGradient
       inkscape:collect="always"
       xlink:href="#linearGradient25"
       id="linearGradient26"
       x1="73.984989"
       y1="75.823621"
       x2="93.731589"
       y2="75.823621"
       gradientUnits="userSpaceOnUse" /><linearGradient
       inkscape:collect="always"
       xlink:href="#linearGradient27"
       id="linearGradient28"
       x1="88.304008"
       y1="73.87276"
       x2="98.814574"
       y2="73.87276"
       gradientUnits="userSpaceOnUse" /><linearGradient
       inkscape:collect="always"
       xlink:href="#linearGradient29"
       id="linearGradient30"
       x1="128.45039"
       y1="73.329193"
       x2="136.24432"
       y2="143.17641"
       gradientUnits="userSpaceOnUse" /></defs><g
     inkscape:label="Layer 1"
     inkscape:groupmode="layer"
     id="layer1"
     transform="translate(30.608671,-13.03334)"><path
       style="opacity:1;fill:#1dd5bc;fill-rule:evenodd;stroke:none;stroke-width:0;stroke-dasharray:none;stroke-opacity:1;fill-opacity:1"
       d="m 42.846644,138.27973 c -5.264548,-7.16186 -18.384092,-34.94068 13.54015,-52.298832 17.068378,28.290152 -2.665126,40.284432 -8.801098,55.345362 -1.265775,-9.71428 0.730188,-21.5514 4.062045,-32.3271 -8.4086,7.57023 -9.770916,17.95897 -8.801097,29.28057 z"
       id="path1"
       sodipodi:nodetypes="ccccc" /><path
       style="opacity:1;fill:#21d2bc;fill-rule:evenodd;stroke:none;stroke-width:0;stroke-dasharray:none;stroke-opacity:1;fill-opacity:1"
       d="m 28.193336,144.96193 c -0.739388,8.45713 3.035533,14.97956 6.568729,21.60558 -13.730595,-8.44452 -21.533395,-19.41563 -16.14483,-36.0093 25.805343,6.06178 22.224698,23.09289 22.317855,37.67127 -5.343216,-8.12117 -6.12463,-13.48038 -12.741754,-23.26755 z"
       id="path2"
       sodipodi:nodetypes="ccccc" /><path
       style="opacity:1;fill:#0a2742;fill-rule:evenodd;stroke:none;stroke-width:0;stroke-dasharray:none;stroke-opacity:1;fill-opacity:1"
       d="m 28.668184,169.81231 c -2.825294,12.8808 5.847312,23.32935 19.310482,32.76451 -3.185214,-17.64577 -4.111118,-28.39436 -19.310482,-32.76451 z"
       id="path3"
       sodipodi:nodetypes="ccc" /><path
       style="opacity:1;fill:#0c2740;fill-rule:evenodd;stroke:none;stroke-width:0;stroke-dasharray:none;stroke-opacity:1;fill-opacity:1"
       d="m 49.798917,176.22276 c 8.733452,-19.49433 27.362666,-24.60595 26.828911,-28.09517 3.132615,-3.95715 5.480147,-8.96108 6.727013,-15.43256 -35.043947,-4.72374 -34.812711,31.39954 -33.555924,43.52773 z"
       id="path4"
       sodipodi:nodetypes="cccc" /><path
       style="opacity:1;fill:#0b2740;fill-rule:evenodd;stroke:none;stroke-width:0;stroke-dasharray:none;stroke-opacity:1;fill-opacity:1"
       d="M 99.799825,194.72298 C 76.405582,196.42695 76.058568,218.97242 84.084636,228.359 100.0037,221.17043 100.59629,205.61226 99.799825,194.72298 Z"
       id="path6"
       sodipodi:nodetypes="ccc" /><path
       style="opacity:1;fill:#1ed2b9;fill-rule:evenodd;stroke:none;stroke-width:0;stroke-dasharray:none;stroke-opacity:1;fill-opacity:1"
       d="m 105.31393,193.75801 c 8.14836,-0.15503 16.73785,-2.42743 26.32983,-9.51183 -15.39219,35.03943 -26.81801,41.8185 -37.633743,44.25067 13.785833,-16.23574 11.555773,-19.0118 11.303913,-34.73884 z"
       id="path7"
       sodipodi:nodetypes="cccc" /><path
       style="opacity:1;fill:#1cceb6;fill-rule:evenodd;stroke:none;stroke-width:0;stroke-dasharray:none;stroke-opacity:1;fill-opacity:1"
       d="m 141.15558,176.52644 c 22.11683,-12.23754 31.53218,0.99246 32.67105,0.96497 1.80084,-3.57487 2.65496,-6.91306 3.30847,-10.20109 -9.92096,-3.45055 -22.10855,-2.11598 -34.60099,-0.13785 -0.0783,3.12466 -0.7361,6.24931 -1.37853,9.37397 z"
       id="path8"
       sodipodi:nodetypes="ccccc" /><path
       style="opacity:1;fill:#1ad0b7;fill-rule:evenodd;stroke:none;stroke-width:0;stroke-dasharray:none;stroke-opacity:1;fill-opacity:1"
       d="m 171.75885,183.14336 c -12.85434,-12.91196 -30.24844,-5.03851 -37.63375,11.16606 -8.12259,11.7003 -10.86651,24.32795 -26.46768,34.73884 36.89662,-3.34215 54.68563,-25.79812 64.10143,-45.9049 z"
       id="path9"
       sodipodi:nodetypes="cccc" /><path
       style="opacity:1;fill:#1ad0b7;fill-rule:evenodd;stroke:none;stroke-width:0;stroke-dasharray:none;stroke-opacity:1;fill-opacity:1"
       d="m 142.2584,156.81353 0.55141,5.37625 c 11.57839,-1.5348 23.15366,-3.11635 35.01455,-0.41356 1.43043,-6.80072 0.92545,-13.60145 0.68926,-20.40217 -5.91363,11.15969 -19.06228,15.26988 -36.25522,15.43948 z"
       id="path10"
       sodipodi:nodetypes="ccccc" /><path
       style="display:inline;opacity:1;fill:#1acab5;fill-opacity:1;fill-rule:evenodd;stroke:none;stroke-width:0;stroke-dasharray:none;stroke-opacity:1"
       d="m 140.32847,151.43728 c 33.65683,2.52476 44.38367,-18.56264 30.05185,-40.25294 0.5775,26.83945 -13.21382,34.52046 -30.74111,37.22019 z"
       id="path11"
       sodipodi:nodetypes="cccc" /><path
       style="opacity:1;fill:#f18d64;fill-rule:evenodd;stroke:none;stroke-width:0;stroke-dasharray:none;stroke-opacity:1;fill-opacity:1"
       d="m 74.95685,90.289767 7.732347,1.643756 C 75.823642,103.3936 75.463502,114.76913 80.25339,126.08707 l -9.794723,0.36528 C 67.740768,114.61454 67.127381,102.6901 74.95685,90.289767 Z"
       id="path12"
       sodipodi:nodetypes="ccccc" /><path
       style="opacity:1;fill:url(#linearGradient24);fill-rule:evenodd;stroke:none;stroke-width:0;stroke-dasharray:none;stroke-opacity:1"
       d="m 88.890786,87.603526 c 0.804394,0.118219 0.909901,-1.713723 -0.235986,-2.42766 L 75.687407,81.88836 c 0.412671,-3.981913 -5.961791,-8.261829 -10.04516,-2.374312 -2.802198,5.175893 4.911701,11.233687 9.603935,4.414092 4.644742,1.778959 9.302059,3.037177 13.644604,3.675386 z"
       id="path13"
       sodipodi:nodetypes="sccccs" /><path
       style="opacity:1;fill:url(#linearGradient26);fill-rule:evenodd;stroke:none;stroke-width:0;stroke-dasharray:none;stroke-opacity:1"
       d="m 92.490223,85.541147 c 0.646228,0.111023 1.667485,-1.604055 1.050637,-1.826394 -2.414093,-0.870142 -10.21216,-8.259831 -9.88512,-9.497243 2.399649,-2.836591 0.06659,-10.317973 -6.872495,-7.488213 -4.844162,1.177864 -3.446803,12.322313 4.56598,8.949327 -0.04845,0.467872 6.524638,9.069427 11.140998,9.862523 z"
       id="path14"
       sodipodi:nodetypes="sscccs" /><path
       style="opacity:1;fill:url(#linearGradient28);fill-rule:evenodd;stroke:none;stroke-width:0;stroke-dasharray:none;stroke-opacity:1"
       d="m 95.777732,83.349474 c -2.349127,-1.306892 -3.005262,-6.064381 -3.835426,-9.131964 -5.748139,-2.060348 -4.205103,-9.699531 1.278474,-9.862523 8.33034,0.382858 5.996225,9.48746 1.750449,9.573191 -0.08122,3.210409 1.317687,6.308891 2.37431,8.584046 0,0 -1.091963,1.101977 -1.567807,0.83725 z"
       id="path15"
       sodipodi:nodetypes="sccccs" /><path
       style="display:inline;opacity:1;fill:url(#linearGradient30);fill-rule:evenodd;stroke:none;stroke-width:0;stroke-dasharray:none;stroke-opacity:1"
       d="m 102.90066,79.879329 c -1.16513,-1.765513 -1.57892,-3.531027 -2.00903,-5.29654 15.07097,-3.664031 45.9698,-2.782351 60.08834,27.395891 13.94165,29.58383 -14.52135,44.73947 -24.29103,40.18065 -7.60586,-11.35017 -17.32156,-16.89826 -26.30006,-24.47367 4.86428,-0.19483 8.45599,-2.93481 12.23683,-5.29654 8.29764,-0.0357 15.72332,-1.29212 20.27296,-6.57501 -19.53974,-9.504785 -12.03055,-12.551473 -23.19519,-21.186161 -6.13221,-5.036123 -11.38872,-4.380231 -16.80282,-4.74862 z"
       id="path16"
       sodipodi:nodetypes="ccccccccc" /><path
       style="display:inline;opacity:1;fill:#0b2742;fill-opacity:1;fill-rule:evenodd;stroke:none;stroke-width:0;stroke-dasharray:none;stroke-opacity:1"
       d="M 134.29262,106.47409 C 119.52002,99.810694 124.10153,93.935199 116.18274,88.808982 96.933136,77.020933 82.931669,97.097927 82.855794,107.65704 l 12.137281,-7.09479 c 3.131656,-0.0489 4.75048,-0.16527 10.503595,-0.643082 -0.6534,5.926562 9.24658,7.067642 8.74809,-0.48488 -0.60402,-3.149494 -8.698,-7.781774 -19.248171,1.127252 l -12.142175,7.09585 c -2.444373,14.95244 17.285966,38.44319 16.927692,46.06173 2.963864,27.56081 -27.410953,20.03896 -31.633496,41.56858 -2.726879,11.86523 4.297607,21.61637 6.027097,22.64728 -2.328025,-22.44588 16.93934,-28.3353 25.430205,-29.35169 37.865578,1.28893 47.908938,-34.25066 19.864338,-56.12351 -7.15607,-6.65251 -17.82665,-10.50076 -18.81185,-22.46464 3.25124,3.97275 14.39662,3.35695 20.10149,-3.54963 8.49113,0.53959 9.08851,0.0286 13.53273,0.0286 z"
       id="path17"
       sodipodi:nodetypes="ccccccccccccccccc" /><path
       style="display:inline;opacity:1;fill:#0b2742;fill-rule:evenodd;stroke:none;stroke-width:0;stroke-dasharray:none;stroke-opacity:1;fill-opacity:1"
       d="m 82.891102,162.21555 -16.775345,2.63131 c -14.3491,6.54996 -23.094437,40.74397 3.077571,56.76548 -14.292774,-24.28229 -5.258471,-35.69447 6.876776,-45.39579 z"
       id="path18"
       sodipodi:nodetypes="ccccc" /><path
       style="display:inline;opacity:1;fill:#1bcdb7;fill-rule:evenodd;stroke:none;stroke-width:0;stroke-dasharray:none;stroke-opacity:1;fill-opacity:1"
       d="m 66.111782,164.84841 c 7.151535,-6.71158 15.673686,-11.93161 30.602922,-10.17923 0.266163,9.41585 -6.073703,16.76731 -20.591876,21.56305 l 6.826865,-14.00886 z"
       id="path19"
       sodipodi:nodetypes="ccccc" /></g></svg>
